# xmcd CD database file
#
# Track frame offsets:
#	187
#	20645
#	41407
#	78470
#	104377
#	120325
#	138070
#	162422
#
# Disc length: 2522 seconds
#
# Revision: 0
# Processed by: cddbd v1.5.1PL0 Copyright (c) Steve Scherf et al.
# Submitted via: CDex 1.51
#
DISCID=5b09d808
DTITLE=Foghat - Fool For The City
DYEAR=1975
DGENRE=Rock
TTITLE0=Fool For The City
TTITLE1=My Babe
TTITLE2=Slow Ride
TTITLE3=Terraplane Blues
TTITLE4=Save Your Loving
TTITLE5=Drive Me Home
TTITLE6=Take It Or Leave It
TTITLE7=Slow Ride(Single Edit)
EXTD=YEAR: 1975
EXTT0=
EXTT1=
EXTT2=
EXTT3=
EXTT4=
EXTT5=
EXTT6=
EXTT7=
PLAYORDER=
